<svg width="83" height="78" viewBox="0 0 83 78" fill="none" xmlns="http://www.w3.org/2000/svg">
<path d="M70.994 9.47101C73.557 12.928 76.118 16.385 78.681 19.843C79.278 20.648 79.813 21.497 80.285 22.386L72.598 12.014C72.126 11.125 71.591 10.276 70.994 9.47101Z" fill="url(#paint0_linear_6_43)"/>
<path d="M12.715 68.755C10.152 65.298 7.58998 61.84 5.02798 58.383C7.41498 61.604 10.78 64.122 14.993 65.683L22.68 76.055C18.467 74.495 15.102 71.977 12.715 68.755Z" fill="url(#paint1_linear_6_43)"/>
<path d="M72.599 12.014L80.286 22.386C81.426 24.534 82.212 26.949 82.586 29.614C82.961 32.28 82.889 35.035 82.438 37.81L74.752 27.438C75.202 24.663 75.274 21.908 74.899 19.242C74.524 16.577 73.738 14.162 72.599 12.014Z" fill="url(#paint2_linear_6_43)"/>
<path d="M32.397 66.896L40.084 77.268C36.99 77.793 33.899 77.979 30.892 77.769C27.885 77.56 25.138 76.967 22.68 76.055L14.993 65.683C17.451 66.596 20.198 67.187 23.205 67.397C26.213 67.607 29.304 67.421 32.397 66.896Z" fill="url(#paint3_linear_6_43)"/>
<path d="M70.241 28.485C70.052 28.528 69.84 28.542 69.62 28.527C69.298 28.505 68.96 28.419 68.661 28.272C68.185 28.039 67.806 27.651 67.732 27.116L66.401 17.599C66.349 17.221 66.453 16.794 66.646 16.376C67.015 15.577 67.713 14.811 68.289 14.479L72.598 12.015C70.234 7.56601 66.288 4.11901 61.025 2.16801L58.451 6.11001C57.928 6.91301 56.277 8.01601 55.038 7.93001L44.299 7.18201C43.069 7.09601 42.456 5.83601 42.652 5.01001L43.71 0.94101C37.058 2.05601 30.355 4.77201 24.286 8.65401L26.22 11.55C26.477 11.94 26.476 12.755 26.137 13.556C25.96 13.975 25.691 14.391 25.317 14.74L15.908 23.508C15.671 23.73 15.4 23.914 15.116 24.065C14.766 24.25 14.397 24.384 14.04 24.469C13.632 24.567 13.241 24.602 12.616 24.537C12.524 24.516 12.443 24.49 12.374 24.456L9.02997 22.864C7.02497 25.605 5.29896 28.517 3.95596 31.554C2.61196 34.592 1.72896 37.563 1.26196 40.412L5.77997 39.365C5.94497 39.327 6.12796 39.312 6.39796 39.323C6.63996 39.34 6.88997 39.392 7.12697 39.479C7.70797 39.692 8.20497 40.112 8.29297 40.727L9.61197 50.25C9.66597 50.626 9.56196 51.052 9.36996 51.47C9.00096 52.268 8.30197 53.036 7.72697 53.363L3.44096 55.87C5.80496 60.301 9.74096 63.736 14.995 65.683L17.562 61.74C18.087 60.937 19.744 59.835 20.978 59.913L31.717 60.661C32.956 60.747 33.558 62.015 33.362 62.84L32.396 66.903C39.018 65.776 45.687 63.064 51.737 59.197L49.798 56.294C49.539 55.909 49.541 55.092 49.879 54.292C50.056 53.873 50.325 53.458 50.697 53.112L60.117 44.337C60.722 43.77 61.55 43.442 62.279 43.32C62.576 43.27 62.857 43.255 63.219 43.283C63.388 43.304 63.533 43.341 63.649 43.395L66.998 44.99C69.003 42.248 70.715 39.334 72.059 36.297C73.403 33.259 74.286 30.288 74.753 27.439L70.241 28.485Z" fill="url(#paint4_linear_6_43)"/>
<path d="M74.751 27.438L82.437 37.81C81.969 40.659 81.086 43.63 79.743 46.668C78.399 49.706 76.687 52.619 74.682 55.361L66.996 44.989C69.001 42.247 70.713 39.333 72.057 36.296C73.4 33.259 74.283 30.288 74.751 27.438Z" fill="url(#paint5_linear_6_43)"/>
<path d="M51.735 59.197L59.421 69.569C53.371 73.436 46.702 76.149 40.08 77.275L32.393 66.903C39.017 65.776 45.686 63.064 51.735 59.197Z" fill="url(#paint6_linear_6_43)"/>
<path d="M15.907 23.506L25.316 14.738C25.69 14.389 25.96 13.974 26.136 13.554C26.475 12.753 26.476 11.938 26.219 11.548L24.28 8.64499C21.368 10.514 18.557 12.678 15.925 15.135C13.285 17.59 10.989 20.191 9.02997 22.863L12.374 24.455C12.443 24.488 12.524 24.515 12.616 24.536C12.662 24.547 12.71 24.555 12.761 24.562C12.811 24.569 12.863 24.575 12.919 24.579C13.241 24.601 13.632 24.566 14.04 24.469C14.397 24.383 14.767 24.25 15.116 24.065C15.399 23.912 15.67 23.728 15.907 23.506Z" fill="url(#paint7_linear_6_43)"/>
<path d="M58.451 6.109L61.026 2.167C60.954 2.14 60.883 2.114 60.811 2.087C60.501 1.974 60.185 1.866 59.865 1.763C57.714 1.074 55.355 0.628998 52.813 0.451998C50.352 0.279998 47.838 0.368 45.309 0.698C44.837 0.76 44.364 0.828999 43.891 0.907999C43.8 0.922999 43.711 0.937998 43.621 0.952998L42.65 5.007C42.455 5.833 43.067 7.093 44.297 7.179L55.036 7.927C56.277 8.015 57.928 6.912 58.451 6.109Z" fill="url(#paint8_linear_6_43)"/>
<path d="M8.29098 40.727C8.20398 40.112 7.70498 39.692 7.12498 39.479C6.88898 39.392 6.63898 39.34 6.39598 39.323C6.36898 39.321 6.34198 39.319 6.31498 39.319C6.12598 39.312 5.94298 39.327 5.77798 39.365L1.25998 40.412C0.817977 43.187 0.744978 45.943 1.11998 48.608C1.48698 51.273 2.27299 53.688 3.42099 55.825L7.72499 53.364C8.29899 53.037 8.99798 52.269 9.36798 51.471C9.55998 51.053 9.66398 50.626 9.60998 50.251L8.29098 40.727Z" fill="url(#paint9_linear_6_43)"/>
<path d="M74.898 19.243C74.524 16.577 73.738 14.162 72.598 12.014L68.289 14.478C67.713 14.81 67.015 15.577 66.646 16.375C66.453 16.793 66.349 17.22 66.401 17.598L67.732 27.115C67.805 27.65 68.185 28.038 68.661 28.271C68.96 28.418 69.298 28.504 69.621 28.526C69.84 28.541 70.052 28.528 70.241 28.484L74.751 27.437C75.201 24.664 75.273 21.908 74.898 19.243Z" fill="url(#paint10_linear_6_43)"/>
<path d="M31.716 60.662L20.977 59.914C19.743 59.835 18.085 60.937 17.561 61.741L14.994 65.684C17.452 66.597 20.199 67.188 23.206 67.398C26.214 67.607 29.305 67.422 32.398 66.897L33.36 62.842C33.557 62.015 32.955 60.748 31.716 60.662Z" fill="url(#paint11_linear_6_43)"/>
<path d="M63.218 43.283C63.179 43.279 63.14 43.275 63.098 43.272C62.856 43.255 62.574 43.27 62.278 43.32C61.549 43.442 60.721 43.77 60.116 44.337L50.696 53.112C50.324 53.458 50.054 53.873 49.878 54.292C49.54 55.092 49.538 55.909 49.797 56.294L51.736 59.197C54.644 57.335 57.456 55.171 60.095 52.716C62.713 50.28 64.993 47.703 66.94 45.057C66.957 45.035 66.973 45.012 66.99 44.99L63.648 43.396C63.532 43.341 63.387 43.304 63.218 43.283Z" fill="url(#paint12_linear_6_43)"/>
<path d="M66.989 44.989L74.676 55.361C74.659 55.383 74.643 55.406 74.626 55.427C72.68 58.073 70.399 60.651 67.781 63.087C65.141 65.542 62.33 67.706 59.422 69.568L51.736 59.196C54.644 57.334 57.456 55.17 60.095 52.715C62.713 50.279 64.993 47.702 66.94 45.056C66.956 45.034 66.973 45.011 66.989 44.989Z" fill="url(#paint13_linear_6_43)"/>
<path d="M48.076 11.482C35.292 10.591 20.418 20.061 14.859 32.629C9.29898 45.198 15.159 56.111 27.943 57.002C40.728 57.893 55.594 48.422 61.153 35.854C66.712 23.286 60.86 12.373 48.076 11.482Z" fill="white"/>
<path d="M48.076 11.165C35.292 10.274 20.418 19.744 14.859 32.312C9.29898 44.881 15.159 55.794 27.943 56.685C40.728 57.576 55.594 48.105 61.153 35.537C66.712 22.968 60.86 12.055 48.076 11.165Z" fill="#FF9F05"/>
<path d="M46.966 23.164L44.045 20.444L39.045 22.749C38.793 22.869 36.531 23.914 34.057 25.312C30.438 27.365 26.071 30.253 24.327 34.464C22.688 38.425 24.627 41.8 28.653 42.011C30.635 42.115 32.752 41.436 34.591 40.245C33.143 42.395 30.953 45.089 28.1 46.891L37.893 47.404C36.622 45.385 36.698 42.581 37.062 40.374C37.857 41.703 39.328 42.57 41.307 42.673C45.342 42.885 49.932 39.852 51.57 35.891C53.314 31.679 51.468 28.467 49.66 26.128C48.429 24.537 47.11 23.305 46.966 23.164Z" fill="url(#paint14_linear_6_43)"/>
<path d="M15.609 34.766C21.168 22.198 36.042 12.728 48.826 13.619C55.865 14.109 60.797 17.642 62.885 22.814C61.493 16.325 56.181 11.73 48.076 11.166C35.292 10.275 20.418 19.745 14.859 32.313C12.361 37.96 12.174 43.268 13.879 47.488C13.075 43.74 13.575 39.365 15.609 34.766Z" fill="#E87500"/>
<path d="M82.585 29.614C82.211 26.948 81.425 24.534 80.285 22.386C79.812 21.497 79.277 20.648 78.681 19.843C78.557 19.676 78.432 19.508 78.308 19.34C78.692 19.962 79.057 20.631 79.37 21.22C80.51 23.368 81.296 25.783 81.67 28.448C82.045 31.114 81.973 33.869 81.523 36.644C81.055 39.493 80.172 42.464 78.829 45.502C77.485 48.54 75.773 51.453 73.769 54.195L73.752 54.182L73.762 54.194C73.745 54.216 73.729 54.239 73.712 54.26C71.766 56.906 69.485 59.484 66.867 61.92C64.227 64.375 61.416 66.539 58.508 68.401C52.458 72.268 45.789 74.981 39.167 76.107L39.162 76.101C36.071 76.626 32.983 76.811 29.977 76.602C26.97 76.393 24.223 75.8 21.765 74.888C17.939 73.47 14.821 71.256 12.491 68.449C12.566 68.551 12.641 68.652 12.717 68.754C15.104 71.975 18.469 74.493 22.682 76.054C25.14 76.966 27.887 77.558 30.894 77.768C33.9 77.978 36.988 77.792 40.079 77.267L40.084 77.273C46.706 76.147 53.375 73.434 59.425 69.567C62.333 67.705 65.145 65.541 67.784 63.086C70.402 60.65 72.682 58.072 74.629 55.426C74.646 55.404 74.662 55.382 74.679 55.36L74.669 55.348L74.686 55.361C76.691 52.619 78.403 49.705 79.747 46.668C81.091 43.63 81.974 40.659 82.441 37.81C82.888 35.036 82.96 32.28 82.585 29.614Z" fill="#B0AAAA"/>
<path d="M72.557 36.931C73.901 33.893 74.784 30.922 75.251 28.073C75.701 25.298 75.773 22.543 75.398 19.877C75.024 17.211 74.238 14.797 73.098 12.649C72.727 11.951 72.306 11.286 71.859 10.639C71.571 10.25 71.282 9.86101 70.994 9.47101C71.591 10.276 72.126 11.125 72.598 12.014C73.738 14.162 74.524 16.577 74.898 19.243C75.273 21.909 75.201 24.664 74.751 27.439C74.283 30.288 73.4 33.259 72.057 36.297C70.713 39.335 69.001 42.248 66.996 44.99L67.004 45.01L66.989 44.99C66.972 45.012 66.956 45.034 66.939 45.057C64.993 47.703 62.712 50.281 60.094 52.716C57.454 55.172 54.643 57.336 51.735 59.197C45.687 63.063 39.021 65.775 32.402 66.902L32.397 66.896C29.303 67.421 26.212 67.607 23.205 67.397C20.198 67.188 17.451 66.596 14.993 65.683C11.007 64.206 7.79098 61.864 5.43298 58.889C5.46398 58.931 5.49698 58.974 5.52798 59.017C7.91498 62.238 11.28 64.756 15.493 66.317C17.951 67.229 20.698 67.821 23.705 68.031C26.711 68.241 29.799 68.055 32.89 67.531L32.895 67.537C39.517 66.41 46.186 63.698 52.236 59.831C55.144 57.969 57.956 55.805 60.595 53.35C63.213 50.914 65.493 48.336 67.44 45.69C67.457 45.668 67.473 45.646 67.49 45.624L67.48 45.612L67.497 45.625C69.501 42.882 71.213 39.968 72.557 36.931Z" fill="white"/>
<defs>
<linearGradient id="paint0_linear_6_43" x1="99.7713" y1="-9.84799" x2="26.4435" y2="68.4785" gradientUnits="userSpaceOnUse">
<stop stop-color="#FFEA05"/>
<stop offset="0.1856" stop-color="#FFDA05"/>
<stop offset="0.7245" stop-color="#FFAF05"/>
<stop offset="1" stop-color="#FF9F05"/>
</linearGradient>
<linearGradient id="paint1_linear_6_43" x1="92.4419" y1="-16.7254" x2="19.1027" y2="61.6133" gradientUnits="userSpaceOnUse">
<stop stop-color="#FFEA05"/>
<stop offset="0.1856" stop-color="#FFDA05"/>
<stop offset="0.7245" stop-color="#FFAF05"/>
<stop offset="1" stop-color="#FF9F05"/>
</linearGradient>
<linearGradient id="paint2_linear_6_43" x1="77.0556" y1="12.24" x2="81.8895" y2="85.0724" gradientUnits="userSpaceOnUse">
<stop stop-color="#38393B"/>
<stop offset="0.3263" stop-color="#2F3031"/>
<stop offset="1" stop-color="#1F2021"/>
</linearGradient>
<linearGradient id="paint3_linear_6_43" x1="23.8415" y1="15.7721" x2="28.6755" y2="88.6057" gradientUnits="userSpaceOnUse">
<stop stop-color="#38393B"/>
<stop offset="0.3263" stop-color="#2F3031"/>
<stop offset="1" stop-color="#1F2021"/>
</linearGradient>
<linearGradient id="paint4_linear_6_43" x1="14.7276" y1="30.0185" x2="112.062" y2="46.3517" gradientUnits="userSpaceOnUse">
<stop stop-color="#FFEA05"/>
<stop offset="0.1856" stop-color="#FFDA05"/>
<stop offset="0.7245" stop-color="#FFAF05"/>
<stop offset="1" stop-color="#FF9F05"/>
</linearGradient>
<linearGradient id="paint5_linear_6_43" x1="111.989" y1="1.58719" x2="38.6564" y2="79.9186" gradientUnits="userSpaceOnUse">
<stop stop-color="#FFEA05"/>
<stop offset="0.1856" stop-color="#FFDA05"/>
<stop offset="0.7245" stop-color="#FFAF05"/>
<stop offset="1" stop-color="#FF9F05"/>
</linearGradient>
<linearGradient id="paint6_linear_6_43" x1="110.026" y1="-0.252291" x2="36.6916" y2="78.0809" gradientUnits="userSpaceOnUse">
<stop stop-color="#FFEA05"/>
<stop offset="0.1856" stop-color="#FFDA05"/>
<stop offset="0.7245" stop-color="#FFAF05"/>
<stop offset="1" stop-color="#FF9F05"/>
</linearGradient>
<linearGradient id="paint7_linear_6_43" x1="11.7649" y1="15.3368" x2="87.2618" y2="29.5027" gradientUnits="userSpaceOnUse">
<stop stop-color="#38393B"/>
<stop offset="0.3263" stop-color="#2F3031"/>
<stop offset="1" stop-color="#1F2021"/>
</linearGradient>
<linearGradient id="paint8_linear_6_43" x1="15.1215" y1="-2.5636" x2="90.6257" y2="11.6037" gradientUnits="userSpaceOnUse">
<stop stop-color="#38393B"/>
<stop offset="0.3263" stop-color="#2F3031"/>
<stop offset="1" stop-color="#1F2021"/>
</linearGradient>
<linearGradient id="paint9_linear_6_43" x1="5.69018" y1="47.7112" x2="81.1985" y2="61.8793" gradientUnits="userSpaceOnUse">
<stop stop-color="#38393B"/>
<stop offset="0.3263" stop-color="#2F3031"/>
<stop offset="1" stop-color="#1F2021"/>
</linearGradient>
<linearGradient id="paint10_linear_6_43" x1="12.8879" y1="9.35511" x2="88.387" y2="23.5215" gradientUnits="userSpaceOnUse">
<stop stop-color="#38393B"/>
<stop offset="0.3263" stop-color="#2F3031"/>
<stop offset="1" stop-color="#1F2021"/>
</linearGradient>
<linearGradient id="paint11_linear_6_43" x1="3.45359" y1="59.6301" x2="78.9539" y2="73.7967" gradientUnits="userSpaceOnUse">
<stop stop-color="#38393B"/>
<stop offset="0.3263" stop-color="#2F3031"/>
<stop offset="1" stop-color="#1F2021"/>
</linearGradient>
<linearGradient id="paint12_linear_6_43" x1="6.80887" y1="41.7307" x2="82.3139" y2="55.8982" gradientUnits="userSpaceOnUse">
<stop stop-color="#38393B"/>
<stop offset="0.3263" stop-color="#2F3031"/>
<stop offset="1" stop-color="#1F2021"/>
</linearGradient>
<linearGradient id="paint13_linear_6_43" x1="60.2902" y1="13.3527" x2="65.1242" y2="86.1862" gradientUnits="userSpaceOnUse">
<stop stop-color="#38393B"/>
<stop offset="0.3263" stop-color="#2F3031"/>
<stop offset="1" stop-color="#1F2021"/>
</linearGradient>
<linearGradient id="paint14_linear_6_43" x1="23.7439" y1="33.9248" x2="52.2688" y2="33.9248" gradientUnits="userSpaceOnUse">
<stop stop-color="#38393B"/>
<stop offset="0.3263" stop-color="#2F3031"/>
<stop offset="1" stop-color="#1F2021"/>
</linearGradient>
</defs>
</svg>
